<?xml version="1.0" encoding="UTF-8"?>
<svg xmlns="http://www.w3.org/2000/svg" id="Layer_1" viewBox="0 0 176.85 75.49">
  <defs>
    <style>.cls-1,.cls-2,.cls-3,.cls-4,.cls-5,.cls-6,.cls-7{stroke-width:0px;}.cls-1,.cls-2,.cls-4,.cls-5{fill-rule:evenodd;}.cls-1,.cls-3{fill:#d22128;}.cls-2{fill:#fcb246;}.cls-4{fill:#ef5b2a;}.cls-5{fill:#e91b47;}.cls-6{fill:#201d1d;}.cls-7{fill:#fff;}</style>
  </defs>
  <path class="cls-7" d="M13.09,2.46s-3.24,1.39-4.99,2.96c-1.76,1.57,7.11,43.95,7.11,43.95,0,0,2.12,2.95,3.78,3.51,1.66.56,10.42,5.97,10.42,5.97,0,0,4.17,1.32,7.96,1.05,3.79-.28,6.74-39.52,6.74-39.52,0,0,.55-1.11-1.66-6C40.23,9.48,18.64.62,13.09,2.46"></path>
  <path class="cls-2" d="M51,11.52C38.56.73,23.4-2.93,13.09,2.46c-.2,5.64,2.76,11.1,7,15.12.48.46.98.89,1.49,1.31,2.39,2.17,5.38,3.83,8.37,4.82-1.33-3.98-1.99-8.63,1.66-11.61,1.33-.66,2.99-.66,3.98.33,3.32,3.32.99,7.63-.34,11.28,1-.67,2.33-.67,3.46-1.58.53-.32,1.05-.66,1.55-1.01,2.62-1.73,4.95-3.72,6.89-5.89,1.09-1.22,2.51-2.44,3.84-3.73"></path>
  <path class="cls-1" d="M19.28,49.93c-.93.82-1.8,1.67-2.65,2.53,4.15,2.91,8.5,5.05,12.78,6.39-1.41-3.23-3.11-6.33-5.56-9.05-.43-.3-.88-.52-1.36-.63-.48-.12-.98-.12-1.52,0-.54.12-1.1.37-1.7.77"></path>
  <path class="cls-5" d="M12.96,47.49c1.36,1.55,2.78,3,4.23,4.36,2.39-4.51,4.45-9.18,5.67-14.24.08-.41.14-.83.2-1.25.11-.84.18-1.69.2-2.54,0-.72-.02-1.44-.08-2.16-.38-5.05-2.18-10.06-5.39-14.46-.33-.59-.67-1.18-1.01-1.77C13.59,10.03,9.74,4.94,5.64.45-4.05,11.04-1.03,31.53,12.96,47.49"></path>
  <path class="cls-4" d="M32.94,65.38c.15.68.31,1.36.46,2.03.12.51.23,1.02.34,1.53.68,1.99,1.02,4.21,1.49,6.31,6.98.88,13.45-.62,18.23-4.81,11.47-10.06,8.87-31.78-5.81-48.52-1.16-1.32-2.36-2.57-3.59-3.75-2.92,3.06-5.55,6.49-8.13,9.84-.41.53-.81,1.06-1.22,1.58-.38.55-.76,1.12-1.13,1.7-.38.58-.74,1.17-1.1,1.78-7.56,10.01-1.59,21.63.45,32.31"></path>
  <path class="cls-3" d="M67,7.14v10.92h-.8V7.14h.8Z"></path>
  <path class="cls-6" d="M69.85,18.06V7.14h.75l4.94,6.72c1,1.36,1.65,2.22,2.22,3.19l.03-.03c-.11-1.26-.13-2.56-.13-4.24v-5.64h.78v10.92h-.73l-4.78-6.5c-.92-1.26-1.77-2.41-2.35-3.38l-.05.03c.08,1.23.1,2.4.1,4.02v5.83h-.78Z"></path>
  <path class="cls-6" d="M80.91,16.78c.71.49,1.65.81,2.71.81,1.77,0,2.84-.94,2.84-2.29,0-1.25-.63-1.96-2.46-2.54-2.19-.7-3.06-1.59-3.06-3.01,0-1.6,1.38-2.8,3.39-2.8,1.15,0,2.01.28,2.43.55l-.31.66c-.31-.21-1.09-.57-2.16-.57-1.96,0-2.57,1.18-2.57,2.04,0,1.17.7,1.83,2.46,2.4,1.99.65,3.06,1.43,3.06,3.19,0,1.51-1.1,3.03-3.71,3.03-1.04,0-2.25-.32-2.92-.81l.31-.66Z"></path>
  <path class="cls-6" d="M91.78,7.81h-4.07v-.66h8.93v.66h-4.07v10.25h-.79V7.81Z"></path>
  <path class="cls-6" d="M98.52,7.14v10.92h-.79V7.14h.79Z"></path>
  <path class="cls-6" d="M103.68,7.81h-4.06v-.66h8.92v.66h-4.07v10.25h-.8V7.81Z"></path>
  <path class="cls-6" d="M110.42,7.14v6.3c0,2.97,1.47,4.15,3.29,4.15,2.03,0,3.47-1.26,3.47-4.15v-6.3h.79v6.23c0,3.52-1.99,4.88-4.31,4.88-2.12,0-4.03-1.23-4.03-4.8v-6.32h.8Z"></path>
  <path class="cls-6" d="M123.14,7.81h-4.07v-.66h8.92v.66h-4.06v10.25h-.8V7.81Z"></path>
  <path class="cls-6" d="M133.38,18.25c-3.11,0-5.43-2.32-5.43-5.51,0-3.43,2.43-5.8,5.54-5.8s5.43,2.37,5.43,5.51c0,3.77-2.69,5.8-5.53,5.8h-.01ZM133.4,17.61c2.88,0,4.69-2.19,4.69-5.09,0-2.37-1.54-4.92-4.63-4.92s-4.68,2.43-4.68,5.12,1.76,4.89,4.61,4.89h.01Z"></path>
  <path class="cls-6" d="M144.84,7.29c.97-.13,2.06-.24,3.27-.24,2.32,0,4.08.63,5.1,1.75.91.99,1.31,2.15,1.31,3.56,0,1.25-.37,2.77-1.51,3.99-1.05,1.12-2.9,1.81-5.34,1.81-.99,0-1.9-.02-2.84-.1V7.29ZM145.64,17.4c.52.08,1.29.1,2.17.1,4.15,0,5.91-2.28,5.91-5.12.03-2.67-1.68-4.67-5.67-4.67-1.05,0-1.85.1-2.41.21v9.48Z"></path>
  <path class="cls-6" d="M162.22,12.63h-4.86v4.76h5.41v.66h-6.21V7.14h5.93v.66h-5.14v4.16h4.86v.67Z"></path>
  <path class="cls-3" d="M73.22,28.54c-.08-1.19-.19-2.73-.19-3.59h-.02c-.32.86-.69,1.78-1.2,2.99l-1.85,4.37h-.44l-1.73-4.31c-.5-1.25-.87-2.2-1.13-3.05h-.02c-.04.93-.1,2.39-.2,3.7l-.28,3.66h-.57l.64-8.01h.66l1.92,4.77c.41,1,.71,1.83.95,2.55h.02c.21-.68.54-1.48.99-2.54l2.02-4.79h.69l.57,8.01h-.57l-.25-3.78Z"></path>
  <path class="cls-6" d="M80.01,28.33h-3.57v3.49h3.97v.49h-4.55v-8.01h4.35v.49h-3.77v3.06h3.57v.48Z"></path>
  <path class="cls-6" d="M81.93,24.42c.71-.09,1.51-.18,2.4-.18,1.7,0,2.99.46,3.74,1.28.67.73.96,1.58.96,2.62,0,.91-.27,2.03-1.1,2.92-.77.82-2.13,1.33-3.92,1.33-.72,0-1.39-.01-2.08-.07v-7.9ZM82.51,31.83c.38.06.95.07,1.59.07,3.04,0,4.34-1.68,4.34-3.75.02-1.96-1.24-3.42-4.16-3.42-.77,0-1.35.07-1.77.15v6.95Z"></path>
  <path class="cls-6" d="M91.11,24.31v8.01h-.58v-8.01h.58Z"></path>
  <path class="cls-6" d="M99.34,31.99c-.45.23-1.36.46-2.5.46-2.16,0-4.23-1.32-4.23-4.11,0-2.09,1.54-4.18,4.55-4.18,1.21,0,1.89.27,2.16.4l-.19.49c-.48-.24-1.19-.41-1.94-.41-2.6,0-3.98,1.58-3.98,3.74,0,1.97,1.32,3.56,3.84,3.56.79,0,1.57-.15,2.12-.43l.18.46Z"></path>
  <path class="cls-6" d="M101.39,24.31v8.01h-.58v-8.01h.58Z"></path>
  <path class="cls-6" d="M103.48,32.31v-8.01h.55l3.62,4.93c.74,1,1.21,1.63,1.63,2.34l.02-.02c-.08-.93-.1-1.88-.1-3.11v-4.13h.57v8.01h-.53l-3.5-4.76c-.68-.93-1.29-1.77-1.72-2.48l-.03.02c.06.9.07,1.76.07,2.95v4.28h-.57Z"></path>
  <path class="cls-6" d="M112.89,29.5l-1.11,2.82h-.6l3.23-8.01h.57l3.21,8.01h-.61l-1.13-2.82h-3.56ZM116.26,29.01l-1.13-2.82c-.21-.53-.32-.88-.44-1.27h-.02c-.12.4-.25.76-.44,1.24l-1.14,2.85h3.17Z"></path>
  <path class="cls-6" d="M122.32,24.31h4.35v.49h-3.77v3.15h3.44v.49h-3.44v3.89h-.59v-8.01Z"></path>
  <path class="cls-6" d="M130.25,22.51l-1.57,1.37h-.48l1.14-1.37h.9ZM128.96,24.31v8.01h-.58v-8.01h.58Z"></path>
  <path class="cls-6" d="M130.77,31.38c.52.36,1.21.59,1.98.59,1.3,0,2.08-.69,2.08-1.68,0-.91-.46-1.43-1.81-1.87-1.6-.51-2.24-1.16-2.24-2.21,0-1.18,1.01-2.05,2.48-2.05.84,0,1.47.2,1.78.4l-.23.49c-.23-.15-.79-.42-1.58-.42-1.44,0-1.89.87-1.89,1.5,0,.86.51,1.34,1.81,1.76,1.46.47,2.24,1.05,2.24,2.34,0,1.11-.81,2.22-2.72,2.22-.76,0-1.65-.23-2.14-.59l.23-.49Z"></path>
  <path class="cls-6" d="M137.63,24.31v8.01h-.58v-8.01h.58Z"></path>
  <path class="cls-6" d="M145.86,31.99c-.45.23-1.35.46-2.5.46-2.16,0-4.23-1.32-4.23-4.11,0-2.09,1.55-4.18,4.55-4.18,1.21,0,1.89.27,2.16.4l-.19.49c-.48-.24-1.19-.41-1.94-.41-2.6,0-3.98,1.58-3.98,3.74,0,1.97,1.32,3.56,3.84,3.56.78,0,1.57-.15,2.12-.43l.18.46Z"></path>
  <path class="cls-6" d="M148.35,29.5l-1.11,2.82h-.61l3.23-8.01h.57l3.2,8.01h-.61l-1.13-2.82h-3.56ZM151.71,29.01l-1.13-2.82c-.22-.53-.32-.88-.44-1.27h-.02c-.12.4-.26.76-.44,1.24l-1.14,2.85h3.17Z"></path>
  <path class="cls-6" d="M161.92,28.33h-3.57v3.49h3.97v.49h-4.55v-8.01h4.35v.49h-3.77v3.06h3.57v.48Z"></path>
  <path class="cls-3" d="M66.01,40.98c.71-.15,1.73-.23,2.7-.23,1.51,0,2.48.28,3.16.89.55.49.86,1.23.86,2.07,0,1.44-.91,2.4-2.06,2.79v.05c.84.29,1.35,1.07,1.61,2.2.35,1.52.61,2.57.84,3h-1.46c-.18-.32-.42-1.25-.73-2.61-.33-1.51-.91-2.07-2.19-2.12h-1.33v4.73h-1.41v-10.77ZM67.42,45.95h1.44c1.51,0,2.46-.83,2.46-2.07,0-1.41-1.02-2.03-2.51-2.04-.68,0-1.17.07-1.39.13v3.99Z"></path>
  <path class="cls-3" d="M80.38,46.63h-4.25v3.94h4.73v1.18h-6.14v-10.92h5.9v1.18h-4.49v3.45h4.25v1.17Z"></path>
  <path class="cls-3" d="M84.46,48.32l-1.13,3.43h-1.46l3.71-10.92h1.7l3.73,10.92h-1.51l-1.17-3.43h-3.87ZM88.04,47.22l-1.07-3.14c-.24-.71-.41-1.36-.57-1.99h-.03c-.16.65-.34,1.31-.55,1.98l-1.07,3.16h3.29Z"></path>
  <path class="cls-6" d="M92.6,40.98c.62-.13,1.59-.23,2.58-.23,1.41,0,2.32.24,3,.79.57.42.91,1.07.91,1.93,0,1.05-.7,1.98-1.85,2.4v.03c1.04.26,2.25,1.12,2.25,2.74,0,.94-.37,1.65-.92,2.19-.76.7-1.99,1.02-3.78,1.02-.97,0-1.72-.07-2.19-.13v-10.74ZM94.01,45.45h1.28c1.49,0,2.36-.78,2.36-1.83,0-1.28-.97-1.78-2.4-1.78-.65,0-1.02.05-1.25.1v3.52ZM94.01,50.68c.28.05.68.07,1.18.07,1.46,0,2.8-.54,2.8-2.12,0-1.49-1.28-2.11-2.82-2.11h-1.17v4.16Z"></path>
  <path class="cls-6" d="M102.8,40.83v10.92h-1.41v-10.92h1.41Z"></path>
  <path class="cls-6" d="M105.26,40.83h1.41v9.73h4.66v1.18h-6.07v-10.92Z"></path>
  <path class="cls-6" d="M114.31,40.83v10.92h-1.41v-10.92h1.41Z"></path>
  <path class="cls-6" d="M118.84,42.03h-3.32v-1.2h8.08v1.2h-3.34v9.72h-1.43v-9.72Z"></path>
  <path class="cls-6" d="M125.37,48.32l-1.13,3.43h-1.46l3.71-10.92h1.7l3.72,10.92h-1.51l-1.17-3.43h-3.87ZM128.95,47.22l-1.07-3.14c-.24-.71-.4-1.36-.56-1.99h-.03c-.16.65-.34,1.31-.55,1.98l-1.07,3.16h3.29Z"></path>
  <path class="cls-6" d="M140.91,51.39c-.5.26-1.49.5-2.85.52l-.39.65c.6.12,1.13.55,1.13,1.22,0,.94-.82,1.31-1.67,1.31-.42,0-.87-.11-1.15-.28l.23-.73c.24.13.56.21.89.21.37,0,.7-.15.7-.5,0-.42-.5-.6-1.27-.68l.68-1.25c-2.66-.31-4.58-2.18-4.58-5.47s2.31-5.74,5.7-5.74c1.36,0,2.22.29,2.59.49l-.34,1.15c-.54-.26-1.3-.45-2.21-.45-2.56,0-4.26,1.64-4.26,4.5,0,2.67,1.54,4.39,4.2,4.39.86,0,1.73-.18,2.3-.45l.29,1.12Z"></path>
  <path class="cls-6" d="M144.58,48.32l-1.13,3.43h-1.46l3.71-10.92h1.7l3.72,10.92h-1.51l-1.16-3.43h-3.88ZM144.6,40.17c-.03-.99.39-1.65,1.1-1.65.36,0,.62.14.96.32.26.15.52.29.78.29.24,0,.39-.11.43-.63h.75c.01,1.02-.34,1.57-1.09,1.57-.34,0-.63-.13-.99-.31-.31-.16-.53-.31-.76-.31-.26,0-.39.28-.42.71h-.76ZM148.16,47.22l-1.07-3.14c-.24-.71-.4-1.36-.57-1.99h-.03c-.16.65-.34,1.31-.55,1.98l-1.07,3.16h3.29Z"></path>
  <path class="cls-6" d="M161.82,46.18c0,3.76-2.29,5.75-5.07,5.75s-4.91-2.24-4.91-5.54c0-3.47,2.15-5.74,5.07-5.74s4.91,2.28,4.91,5.52ZM153.35,46.36c0,2.33,1.26,4.42,3.49,4.42s3.5-2.06,3.5-4.53c0-2.17-1.13-4.44-3.48-4.44s-3.5,2.16-3.5,4.55Z"></path>
  <path class="cls-3" d="M114.41,61.79v3.34h4.79v-3.34h.55v7.64h-.55v-3.83h-4.79v3.83h-.55v-7.64h.55Z"></path>
  <path class="cls-3" d="M127.6,69.12c-.43.21-1.29.44-2.39.44-2.06,0-4.03-1.26-4.03-3.92,0-1.99,1.47-3.99,4.34-3.99,1.16,0,1.8.26,2.06.38l-.19.46c-.45-.23-1.13-.38-1.84-.38-2.48,0-3.8,1.51-3.8,3.57,0,1.88,1.26,3.4,3.66,3.4.75,0,1.5-.14,2.02-.41l.17.44Z"></path>
  <path class="cls-3" d="M129.47,61.79h4.15v.46h-3.59v3h3.28v.46h-3.28v3.71h-.56v-7.64Z"></path>
  <path class="cls-3" d="M142.02,65.82c-.08-1.13-.18-2.6-.18-3.42h-.02c-.31.82-.66,1.7-1.15,2.85l-1.77,4.17h-.42l-1.65-4.11c-.47-1.19-.83-2.1-1.08-2.91h-.02c-.03.88-.09,2.28-.19,3.53l-.27,3.49h-.55l.61-7.64h.63l1.83,4.56c.38.95.68,1.74.91,2.44h.02c.2-.65.51-1.42.94-2.43l1.93-4.56h.66l.54,7.64h-.54l-.24-3.61Z"></path>
  <path class="cls-3" d="M145.09,61.79v4.41c0,2.07,1.03,2.9,2.3,2.9,1.42,0,2.42-.88,2.42-2.9v-4.41h.55v4.36c0,2.46-1.39,3.41-3.01,3.41-1.48,0-2.82-.86-2.82-3.36v-4.42h.56Z"></path>
  <path class="cls-3" d="M152.1,68.53c.5.34,1.16.57,1.89.57,1.23,0,1.98-.66,1.98-1.6,0-.87-.44-1.37-1.72-1.78-1.53-.49-2.14-1.11-2.14-2.11,0-1.12.96-1.96,2.37-1.96.81,0,1.41.19,1.7.38l-.21.46c-.22-.14-.76-.39-1.51-.39-1.37,0-1.8.83-1.8,1.42,0,.82.49,1.28,1.72,1.68,1.39.45,2.14.99,2.14,2.23,0,1.05-.77,2.12-2.6,2.12-.72,0-1.57-.23-2.04-.56l.22-.47Z"></path>
  <path class="cls-3" d="M158.08,61.87c.49-.08,1.11-.14,1.81-.14,1.02,0,1.75.25,2.21.68.39.36.61.86.61,1.48,0,.67-.2,1.19-.59,1.58-.52.55-1.4.83-2.4.83-.4,0-.77-.01-1.09-.11v3.25h-.56v-7.56ZM158.64,65.69c.32.1.73.14,1.15.14,1.52,0,2.37-.69,2.37-1.87,0-1.32-1.05-1.77-2.28-1.77-.58,0-1.02.06-1.25.1v3.4Z"></path>
  <polygon class="cls-6" points="169.78 51.03 174.59 51.03 174.59 48.26 175.16 48.26 175.16 51.64 169.78 51.64 169.78 51.03"></polygon>
  <path class="cls-6" d="M171.39,44.84h3.76v.55l-.49-.04h0c.37.21.56.61.56,1.24,0,.88-.44,1.32-1.32,1.32h-2.5v-.55h2.5c.34,0,.57-.06.69-.17.12-.11.17-.33.17-.66,0-.44-.09-.73-.25-.89-.17-.17-.49-.24-.95-.24h-2.16v-.55Z"></path>
  <path class="cls-6" d="M173.8,41.39v-.55h.2c.81,0,1.21.52,1.21,1.58,0,.68-.13,1.13-.38,1.34-.26.22-.78.33-1.58.33-.75,0-1.25-.11-1.52-.33-.26-.22-.4-.64-.4-1.27s.09-1.03.27-1.25c.18-.23.52-.34,1.01-.34v.55h-.1c-.29,0-.49.07-.59.22-.1.14-.14.43-.14.86s.09.68.27.8c.19.12.6.18,1.24.18s1.02-.07,1.19-.2c.17-.13.25-.45.25-.95,0-.42-.05-.69-.17-.8s-.37-.17-.79-.17"></path>
  <path class="cls-6" d="M171.39,37.55l3.98,1.07c.56.15.95.32,1.16.5.21.18.31.45.31.78,0,.07,0,.16-.02.27h-.46c.02-.08.03-.14.03-.19.02-.3-.23-.52-.72-.66l-.37-.11s-.06-.01-.14-.03v.21l-3.76,1.36v-.59l1.68-.58.83-.29.42-.14.42-.15v-.02l-.42-.1-.42-.1-.83-.21-1.68-.42v-.59Z"></path>
  <path class="cls-6" d="M169.78,29.46h5.38v.61h-4.78s-.16,0-.16,0v.02l.12.05c.06.03.11.04.12.05l.25.1,4.45,1.83v.61l-4.4,1.84-.24.11-.12.05s-.07.03-.13.05h0s.14.01.14.01h.15s.3,0,.3,0h4.3v.61h-5.38v-1.05l3.48-1.44.56-.23.28-.12.27-.11h0s-.27-.13-.27-.13c-.13-.05-.23-.09-.28-.11l-.56-.23-3.48-1.43v-1.07Z"></path>
  <path class="cls-6" d="M171.34,27.07c0-.69.12-1.15.36-1.35.24-.21.77-.31,1.58-.31s1.33.1,1.58.31c.24.21.36.66.36,1.35s-.12,1.14-.36,1.35c-.25.21-.77.31-1.58.31s-1.33-.1-1.58-.31c-.24-.21-.36-.66-.36-1.35M171.8,27.07c0,.49.08.79.23.91.16.12.57.17,1.24.17s1.08-.06,1.25-.17c.16-.12.23-.42.23-.91s-.08-.79-.23-.91c-.16-.12-.57-.18-1.25-.18s-1.09.06-1.24.18c-.16.12-.23.42-.23.91"></path>
  <path class="cls-6" d="M171.39,24.71v-.53l.51.02v-.02c-.37-.17-.57-.58-.57-1.25,0-.54.09-.9.28-1.09.19-.19.55-.29,1.09-.29h2.45v.55h-2.55c-.32,0-.54.06-.65.18-.11.12-.16.36-.16.71,0,.78.37,1.16,1.09,1.16h2.27v.55h-3.76Z"></path>
  <path class="cls-6" d="M171.39,18.71h.46v1.45h2.3c.4,0,.6-.18.6-.54s-.18-.53-.54-.53h-.19s-.21-.01-.21-.01v-.51h.28c.74,0,1.11.35,1.11,1.05s-.31,1.09-.92,1.09h-2.44v.52h-.46v-.52h-.91v-.55h.91v-1.45Z"></path>
  <path class="cls-6" d="M171.34,16.68c0-.7.12-1.15.36-1.35.24-.21.77-.31,1.58-.31s1.33.1,1.58.31c.24.21.36.66.36,1.35s-.12,1.14-.36,1.35c-.25.21-.77.31-1.58.31s-1.33-.1-1.58-.31c-.24-.21-.36-.66-.36-1.35M171.8,16.68c0,.49.08.79.23.91.16.12.57.18,1.24.18s1.08-.06,1.25-.18c.16-.12.23-.42.23-.91s-.08-.79-.23-.91c-.16-.12-.57-.18-1.25-.18s-1.09.06-1.24.18c-.16.12-.23.42-.23.91"></path>
  <path class="cls-6" d="M171.39,14.26v-.55l.43.06h.01c-.35-.23-.53-.59-.53-1.09,0-.69.36-1.04,1.07-1.04h.26v.55h-.09c-.1-.02-.17-.02-.2-.02-.39,0-.58.21-.58.63,0,.61.38.92,1.14.92h2.26v.55h-3.76Z"></path>
  <path class="cls-6" d="M171.34,9.71c0-.7.12-1.15.36-1.36.24-.21.77-.31,1.58-.31s1.33.11,1.58.31c.24.21.36.66.36,1.36s-.12,1.14-.36,1.35c-.25.21-.77.31-1.58.31s-1.33-.1-1.58-.31c-.24-.21-.36-.66-.36-1.35M171.8,9.71c0,.49.08.79.23.91.16.12.57.18,1.24.18s1.08-.06,1.25-.18c.16-.12.23-.42.23-.91s-.08-.8-.23-.91c-.16-.11-.57-.17-1.25-.17s-1.09.06-1.24.17c-.16.12-.23.42-.23.91"></path>
  <path class="cls-6" d="M175.14,70h-5.58v-2.66c0-.6.12-1.02.35-1.27.24-.25.65-.37,1.24-.37.52,0,.87.06,1.08.2s.33.39.4.77h.01c.05-.59.4-.89,1.08-.89h1.43v.63h-1.28c-.65,0-.98.28-.98.85v2.11h2.26v.63ZM172.34,69.37v-1.82c0-.48-.07-.81-.22-.99-.15-.17-.42-.26-.82-.26-.51,0-.84.07-.99.2-.15.13-.23.41-.23.83v2.04h2.26Z"></path>
  <path class="cls-6" d="M173.96,62.42v-.59h.14c.41,0,.69.12.85.37.16.25.24.68.24,1.3,0,.72-.13,1.2-.4,1.42-.26.23-.82.34-1.66.34-.78,0-1.3-.11-1.57-.34-.27-.23-.4-.67-.4-1.33,0-.72.12-1.2.35-1.42.24-.22.72-.34,1.47-.34h.3v2.82c.62,0,1.01-.06,1.18-.2.17-.13.25-.44.25-.92s-.04-.76-.12-.9c-.08-.14-.25-.21-.52-.21h-.13ZM172.84,62.42h-.18c-.42,0-.7.08-.82.21-.13.14-.19.44-.19.9s.08.76.22.9c.15.14.48.21.98.21v-2.22Z"></path>
  <path class="cls-6" d="M169.55,57.99h5.58v.58l-.51-.03v.02c.37.18.56.6.56,1.26,0,.6-.15,1.01-.44,1.23-.29.22-.83.33-1.63.33-.73,0-1.25-.11-1.53-.33-.28-.22-.43-.62-.43-1.19,0-.71.19-1.14.56-1.27h0s-2.16-.01-2.16-.01v-.58ZM171.64,59.71c0,.43.1.71.29.85.2.14.59.21,1.19.21.65,0,1.08-.07,1.29-.2.2-.14.31-.43.31-.86,0-.47-.1-.78-.31-.92-.21-.14-.66-.21-1.34-.21-.56,0-.94.08-1.13.24-.19.16-.29.46-.29.91"></path>
  <path class="cls-6" d="M173.96,54.6v-.59h.14c.41,0,.69.12.85.37.16.24.24.68.24,1.3,0,.72-.13,1.19-.4,1.42-.26.22-.82.34-1.66.34-.78,0-1.3-.11-1.57-.34-.27-.23-.4-.67-.4-1.33,0-.72.12-1.19.35-1.41.24-.23.72-.34,1.47-.34h.3v2.82c.62,0,1.01-.07,1.18-.2.17-.13.25-.44.25-.92s-.04-.77-.12-.9c-.08-.14-.25-.2-.52-.2h-.13ZM172.84,54.6h-.18c-.42,0-.7.07-.82.21-.13.15-.19.44-.19.91s.08.76.22.9c.15.14.48.21.98.21v-2.22Z"></path>
</svg>
